<svg width="21" height="24" viewBox="0 0 21 24" fill="none" xmlns="http://www.w3.org/2000/svg">
<path d="M10.5 0C4.7103 0 0 4.73133 0 10.5469C0 11.1914 0 16.1769 0 16.2656C0 17.4287 0.94206 18.375 2.1 18.375H2.9204C3.20936 19.1933 3.98743 19.7812 4.9 19.7812C6.05794 19.7812 7 18.835 7 17.6719V11.9531C7 10.79 6.05794 9.84375 4.9 9.84375C3.98743 9.84375 3.20936 10.4317 2.9204 11.25H2.1C1.85458 11.25 1.6191 11.2929 1.4 11.3709V10.5469C1.4 5.50673 5.48226 1.40625 10.5 1.40625C15.5177 1.40625 19.6 5.50673 19.6 10.5469V11.3709C19.3809 11.2929 19.1454 11.25 18.9 11.25H18.0796C17.7906 10.4317 17.0126 9.84375 16.1 9.84375C14.9421 9.84375 14 10.79 14 11.9531V17.6719C14 18.835 14.9421 19.7812 16.1 19.7812C16.3119 19.7812 16.5165 19.7493 16.7095 19.6904C16.4477 20.5558 15.646 21.1875 14.7 21.1875H12.4796C12.1906 20.3692 11.4126 19.7812 10.5 19.7812C9.34206 19.7812 8.4 20.7275 8.4 21.8906C8.4 23.0537 9.34206 24 10.5 24C11.4126 24 12.1906 23.4121 12.4796 22.5938H14.7C16.6299 22.5938 18.2 21.0166 18.2 19.0781V18.375H18.9C20.0579 18.375 21 17.4287 21 16.2656C21 16.1783 21 11.1908 21 10.5469C21 4.73133 16.2897 0 10.5 0ZM4.2 11.9531C4.2 11.5654 4.51402 11.25 4.9 11.25C5.28598 11.25 5.6 11.5654 5.6 11.9531V17.6719C5.6 18.0596 5.28598 18.375 4.9 18.375C4.51402 18.375 4.2 18.0596 4.2 17.6719V11.9531ZM2.1 12.6562H2.8V16.9688H2.1C1.71402 16.9688 1.4 16.6533 1.4 16.2656V13.3594C1.4 12.9717 1.71402 12.6562 2.1 12.6562ZM10.5 22.5938C10.114 22.5938 9.8 22.2783 9.8 21.8906C9.8 21.5029 10.114 21.1875 10.5 21.1875C10.886 21.1875 11.2 21.5029 11.2 21.8906C11.2 22.2783 10.886 22.5938 10.5 22.5938ZM16.8 17.6719C16.8 18.0596 16.486 18.375 16.1 18.375C15.714 18.375 15.4 18.0596 15.4 17.6719V11.9531C15.4 11.5654 15.714 11.25 16.1 11.25C16.486 11.25 16.8 11.5654 16.8 11.9531V17.6719ZM19.6 16.2656C19.6 16.6533 19.286 16.9688 18.9 16.9688H18.2V12.6562H18.9C19.286 12.6562 19.6 12.9717 19.6 13.3594V16.2656Z" fill="#232536"/>
<path fill-rule="evenodd" clip-rule="evenodd" d="M10.4857 5.16528C9.10409 5.16461 7.77545 5.55092 6.91459 6.24338C6.59271 6.5023 6.12281 6.45009 5.86505 6.12677C5.60728 5.80345 5.65926 5.33146 5.98114 5.07254C7.18125 4.10719 8.87431 3.66449 10.4864 3.66528C12.0957 3.66607 13.7723 4.10933 14.924 5.0926C15.2383 5.36085 15.2765 5.83417 15.0094 6.14979C14.7423 6.4654 14.2711 6.50379 13.9569 6.23553C13.1594 5.55466 11.8702 5.16596 10.4857 5.16528Z" fill="#232536"/>
</svg>
