<svg width="18" height="24" viewBox="0 0 18 24" fill="none" xmlns="http://www.w3.org/2000/svg">
<path fill-rule="evenodd" clip-rule="evenodd" d="M3.86245 6.75832H2.98792C2.96891 6.75832 2.95132 6.77622 2.95132 6.79528V9.26979C2.95132 9.28892 2.96891 9.3066 2.98792 9.3066H3.86245V6.75832ZM14.1377 5.65036H15.0121C15.6344 5.65036 16.1416 6.16441 16.1416 6.79528V9.26965C16.1416 9.90045 15.6344 10.4145 15.0121 10.4145H13.5014C13.0513 11.1395 12.4159 11.7728 11.7328 12.2719C11.7328 13.1604 12.3679 13.886 13.2631 13.886C15.8777 13.886 18 14.5846 18 17.8005C18 18.1065 17.7553 18.3545 17.4533 18.3545C17.1516 18.3545 16.9068 18.1065 16.9068 17.8005C16.9068 15.221 15.2196 14.9938 13.2631 14.9938C12.8293 14.9938 12.4195 14.8862 12.0586 14.6961L9.13924 16.8386C8.95276 16.9815 8.68889 16.9915 8.48971 16.8451L5.70891 14.8042C5.40823 14.9265 5.08009 14.9938 4.73685 14.9938C2.78051 14.9938 1.09322 15.221 1.09322 17.8005C1.09322 18.1065 0.848432 18.3545 0.546682 18.3545C0.244861 18.3545 0 18.1065 0 17.8005C0 14.5846 2.12239 13.886 4.73685 13.886C5.54073 13.886 6.20438 13.2503 6.26297 12.45C5.48363 11.9314 4.75529 11.2354 4.28607 10.4145H2.98792C2.36555 10.4145 1.85838 9.90045 1.85838 9.26965V6.79528C1.85838 6.16441 2.36548 5.65036 2.98792 5.65036H3.86245V4.86003C3.86245 2.19643 5.98513 0 8.60731 0H9.39262C12.0147 0 14.1377 2.19672 14.1377 4.86018V5.65036ZM13.0445 9.30704V5.716C11.5609 5.9094 10.0694 5.4845 8.90658 4.53946C7.82677 5.41455 6.42513 5.87884 4.9556 5.73692V9.23708C5.19316 10.0062 5.7697 10.685 6.43413 11.2138C7.34002 11.935 8.36919 12.3609 8.93283 12.3609C9.50426 12.3609 10.6619 11.8213 11.6329 10.9403C11.8143 10.776 11.9874 10.6 12.1469 10.4147H10.4574C10.2913 10.6389 10.0268 10.784 9.7287 10.784C9.22557 10.784 8.81784 10.3705 8.81784 9.86076C8.81784 9.35068 9.22557 8.93729 9.7287 8.93729C10.0268 8.93729 10.2913 9.08244 10.4574 9.30668C11.1825 9.3066 12.3907 9.30704 13.0445 9.30704V9.30704ZM15.0121 6.75832H14.1377V9.3066H15.0121C15.031 9.3066 15.0485 9.28892 15.0485 9.26965V6.79528C15.0485 6.77622 15.031 6.75832 15.0121 6.75832V6.75832ZM13.0357 4.60093C12.9403 3.1762 12.0637 1.95753 10.8343 1.41257C10.6398 2.3001 10.2399 3.09726 9.69351 3.75926C10.6459 4.4846 11.8505 4.79109 13.0357 4.60093ZM9.77878 1.12895C9.65195 1.11522 9.52313 1.10803 9.39262 1.10803H8.60731C6.65821 1.10803 5.08059 2.67791 4.9627 4.62638C7.22312 4.89282 9.31026 3.36277 9.77878 1.12895ZM6.6624 14.1382L8.80997 15.7143L11.1929 13.9655C10.9583 13.66 10.7877 13.3018 10.702 12.9115C10.012 13.2694 9.36431 13.4686 8.93283 13.4686C8.50645 13.4686 7.90834 13.3084 7.27292 13.0156C7.16155 13.4405 6.94868 13.8244 6.6624 14.1382V14.1382Z" fill="#232536"/>
<path fill-rule="evenodd" clip-rule="evenodd" d="M17.7615 19.6569C17.9877 19.9595 17.929 20.3907 17.6304 20.6199C14.0557 23.3647 10.7932 24.2337 7.8651 23.9483C4.95603 23.6648 2.47235 22.2509 0.423525 20.6115C0.129525 20.3763 0.0793497 19.944 0.311455 19.646C0.54356 19.348 0.970053 19.2972 1.26405 19.5324C3.20452 21.0851 5.44499 22.3313 7.99493 22.5798C10.5258 22.8265 13.4573 22.0994 16.8113 19.524C17.1099 19.2948 17.5353 19.3543 17.7615 19.6569Z" fill="#232536"/>
</svg>
