<svg width="18" height="25" viewBox="0 0 18 25" fill="none" xmlns="http://www.w3.org/2000/svg">
<path fill-rule="evenodd" clip-rule="evenodd" d="M3.86245 7.38039H2.98792C2.96891 7.38039 2.95132 7.39829 2.95132 7.41735V9.89187C2.95132 9.91099 2.96891 9.92867 2.98792 9.92867H3.86245V7.38039ZM14.1377 6.27243H15.0121C15.6344 6.27243 16.1416 6.78648 16.1416 7.41735V9.89172C16.1416 10.5225 15.6344 11.0366 15.0121 11.0366H13.5014C13.0513 11.7615 12.4159 12.3949 11.7328 12.8939C11.7328 13.7825 12.3679 14.508 13.2631 14.508C15.8777 14.508 18 15.2067 18 18.4226C18 18.7286 17.7553 18.9766 17.4533 18.9766C17.1516 18.9766 16.9068 18.7286 16.9068 18.4226C16.9068 15.843 15.2196 15.6158 13.2631 15.6158C12.8293 15.6158 12.4195 15.5082 12.0586 15.3181L9.13924 17.4606C8.95276 17.6036 8.68889 17.6136 8.48971 17.4672L5.70891 15.4263C5.40823 15.5486 5.08009 15.6158 4.73685 15.6158C2.78051 15.6158 1.09322 15.843 1.09322 18.4226C1.09322 18.7286 0.848432 18.9766 0.546682 18.9766C0.244861 18.9766 0 18.7286 0 18.4226C0 15.2067 2.12239 14.508 4.73685 14.508C5.54073 14.508 6.20438 13.8724 6.26297 13.0721C5.48363 12.5535 4.75529 11.8574 4.28607 11.0366H2.98792C2.36555 11.0366 1.85838 10.5225 1.85838 9.89172V7.41735C1.85838 6.78648 2.36548 6.27243 2.98792 6.27243H3.86245V5.4821C3.86245 2.8185 5.98513 0.62207 8.60731 0.62207H9.39262C12.0147 0.62207 14.1377 2.81879 14.1377 5.48225V6.27243ZM13.0445 9.92911V6.33807C11.5609 6.53147 10.0694 6.10657 8.90658 5.16153C7.82677 6.03662 6.42513 6.50091 4.9556 6.35899V9.85915C5.19316 10.6283 5.7697 11.307 6.43413 11.8359C7.34002 12.557 8.36919 12.983 8.93283 12.983C9.50426 12.983 10.6619 12.4434 11.6329 11.5623C11.8143 11.398 11.9874 11.2221 12.1469 11.0368H10.4574C10.2913 11.2609 10.0268 11.406 9.7287 11.406C9.22557 11.406 8.81784 10.9926 8.81784 10.4828C8.81784 9.97275 9.22557 9.55936 9.7287 9.55936C10.0268 9.55936 10.2913 9.70451 10.4574 9.92875C11.1825 9.92867 12.3907 9.92911 13.0445 9.92911V9.92911ZM15.0121 7.38039H14.1377V9.92867H15.0121C15.031 9.92867 15.0485 9.91099 15.0485 9.89172V7.41735C15.0485 7.39829 15.031 7.38039 15.0121 7.38039V7.38039ZM13.0357 5.223C12.9403 3.79827 12.0637 2.5796 10.8343 2.03464C10.6398 2.92217 10.2399 3.71934 9.69351 4.38133C10.6459 5.10667 11.8505 5.41316 13.0357 5.223ZM9.77878 1.75102C9.65195 1.73729 9.52313 1.7301 9.39262 1.7301H8.60731C6.65821 1.7301 5.08059 3.29998 4.9627 5.24845C7.22312 5.51489 9.31026 3.98484 9.77878 1.75102ZM6.6624 14.7602L8.80997 16.3364L11.1929 14.5875C10.9583 14.2821 10.7877 13.9238 10.702 13.5336C10.012 13.8915 9.36431 14.0907 8.93283 14.0907C8.50645 14.0907 7.90834 13.9305 7.27292 13.6377C7.16155 14.0626 6.94868 14.4464 6.6624 14.7602V14.7602Z" fill="#FFA155"/>
<path fill-rule="evenodd" clip-rule="evenodd" d="M17.7615 20.2789C17.9877 20.5816 17.929 21.0127 17.6304 21.242C14.0557 23.9868 10.7932 24.8558 7.8651 24.5704C4.95603 24.2869 2.47235 22.873 0.423525 21.2336C0.129525 20.9983 0.0793497 20.5661 0.311455 20.2681C0.54356 19.9701 0.970053 19.9193 1.26405 20.1545C3.20452 21.7072 5.44499 22.9534 7.99493 23.2019C10.5258 23.4485 13.4573 22.7215 16.8113 20.1461C17.1099 19.9169 17.5353 19.9763 17.7615 20.2789Z" fill="#4F56FF"/>
</svg>
