<svg width="24" height="24" viewBox="0 0 24 24" fill="none" xmlns="http://www.w3.org/2000/svg">
<path d="M2.10938 0H21.8906C23.0537 0 24 0.949977 24 2.11765V21.8824C24 23.05 23.0537 24 21.8906 24H2.10938C0.946266 24 0 23.05 0 21.8824V2.11765C0 0.949977 0.946266 0 2.10938 0ZM21.8906 1.41176H2.10938C1.72167 1.41176 1.40625 1.72842 1.40625 2.11765V5.64706H22.5938V2.11765C22.5938 1.72842 22.2783 1.41176 21.8906 1.41176ZM2.10938 22.5882H21.8906C22.2783 22.5882 22.5938 22.2716 22.5938 21.8824V7.05882H1.40625V21.8824C1.40625 22.2716 1.72167 22.5882 2.10938 22.5882Z" fill="#232536"/>
<path d="M9.6137 9.23352C9.97061 9.07996 10.384 9.24594 10.537 9.60425L14.7557 19.4866C14.9087 19.8449 14.7433 20.2599 14.3864 20.4135C14.0294 20.5671 13.6161 20.401 13.4632 20.0427L9.24442 10.1604C9.09142 9.80204 9.2568 9.38707 9.6137 9.23352V9.23352Z" fill="#232536"/>
<path d="M15.6696 11.5591C15.9123 11.2547 16.3548 11.2054 16.6579 11.4489L20.1735 14.2724C20.525 14.5546 20.5253 15.0924 20.1735 15.3748L16.6579 18.1984C16.3547 18.4419 15.9121 18.3925 15.6696 18.0882C15.4271 17.7837 15.4762 17.3395 15.7795 17.096L18.6087 14.8236L15.7795 12.5513C15.4762 12.3078 15.4271 11.8636 15.6696 11.5591V11.5591Z" fill="#232536"/>
<path d="M3.82638 14.2725L7.342 11.4489C7.64524 11.2053 8.08774 11.2547 8.33027 11.5591C8.57285 11.8636 8.52372 12.3078 8.22044 12.5513L5.39116 14.8237L8.22044 17.096C8.52372 17.3395 8.57285 17.7837 8.33027 18.0881C8.08736 18.3929 7.64481 18.4416 7.342 18.1983L3.82638 15.3748C3.47486 15.0926 3.47463 14.5549 3.82638 14.2725Z" fill="#232536"/>
<path d="M20.4375 4.23525C20.0492 4.23525 19.7344 3.91922 19.7344 3.52937C19.7344 3.13952 20.0492 2.82349 20.4375 2.82349C20.8258 2.82349 21.1406 3.13952 21.1406 3.52937C21.1406 3.91922 20.8258 4.23525 20.4375 4.23525Z" fill="#232536"/>
<path d="M17.625 4.23525C17.2367 4.23525 16.9219 3.91922 16.9219 3.52937C16.9219 3.13952 17.2367 2.82349 17.625 2.82349C18.0133 2.82349 18.3281 3.13952 18.3281 3.52937C18.3281 3.91922 18.0133 4.23525 17.625 4.23525Z" fill="#232536"/>
<path d="M14.8125 4.23525C14.4242 4.23525 14.1094 3.91922 14.1094 3.52937C14.1094 3.13952 14.4242 2.82349 14.8125 2.82349C15.2008 2.82349 15.5156 3.13952 15.5156 3.52937C15.5156 3.91922 15.2008 4.23525 14.8125 4.23525Z" fill="#232536"/>
<path d="M7.78125 4.23525H3.5625C3.17419 4.23525 2.85938 3.9192 2.85938 3.52937C2.85938 3.13953 3.17419 2.82349 3.5625 2.82349H7.78125C8.16956 2.82349 8.48438 3.13953 8.48438 3.52937C8.48438 3.9192 8.16956 4.23525 7.78125 4.23525Z" fill="#232536"/>
</svg>
